# xmcd CD database file
#
# Track frame offsets:
#	150
#	37193
#	80462
#	107666
#	167396
#	210190
#	255165
#
# Disc length: 3953 seconds
#
# Revision: 1
# Processed by: cddbd v1.5.1PL2 Copyright (c) Steve Scherf et al.
# Submitted via: CDex 1.51
#
DISCID=480f6f07
DTITLE=Phil Lesh and Friends - Phil Lesh and Friends Boca Raton, FL 6.22.06 - Disc 1
DYEAR=2006
DGENRE=Rhythmic Soul
TTITLE0=Passenger
TTITLE1=The Weight
TTITLE2=Mr. Charlie
TTITLE3=Bertha
TTITLE4=Broken Arrow
TTITLE5=Cosmic Charlie
TTITLE6=Good Lovin'
EXTD=YEAR: 2006
EXTT0=
EXTT1=
EXTT2=
EXTT3=
EXTT4=
EXTT5=
EXTT6=
PLAYORDER=
